# xmcd CD database file generated by GCD 2.91
# 
# Track frame offsets:
#       150
#       21037
#       39342
#       60380
#       78585
#       97287
#       120130
#       140337
#       161532
# 
# Disc length: 2479 seconds
# 
# Revision: 3
# Processed by: cddbd v1.4b41PL1 Copyright (c) Steve Scherf et al.
# Submitted via: GCD 2.91
# 
DISCID=6709ad09
DTITLE=The J. Geils Band - Hotline
DYEAR=1900
DGENRE=
TTITLE0=Love-itis
TTITLE1=Easy way out
TTITLE2=Think it over
TTITLE3=Be careful (what you do)
TTITLE4=Jealous love
TTITLE5=Mean love
TTITLE6=Orange driver
TTITLE7=Believe in me
TTITLE8=Fancy footwork
EXTD=
EXTT0=
EXTT1=
EXTT2=
EXTT3=
EXTT4=
EXTT5=
EXTT6=
EXTT7=
EXTT8=
PLAYORDER=
